<svg viewBox="0 0 1024 1176.463" xmlns="http://www.w3.org/2000/svg"><path d="M797.12 581.14c-21.626 88.545-81.438 159.932-160.56 196.87l-1.795.753-47.147-52.984-79.497 79.976c-94.94-1.318-178.82-47.523-231.538-118.307l-.555-.78c7.616 2.476 16.467 4.225 25.618 4.897l.375.022c1.095.18 2.357.28 3.644.28 13.068 0 23.66-10.593 23.66-23.66 0-1.063-.07-2.11-.205-3.134l.012.12V449.498c.012-.35.02-.76.02-1.172 0-19.656-15.935-35.59-35.59-35.59-3.22 0-6.34.428-9.307 1.23l.25-.058c-36.79 8.478-66.222 100.332-66.222 100.332-.01-.84-.014-1.83-.014-2.822 0-88.126 39.027-167.136 100.743-220.688l.36-.307c40.6-35.277 91.434-59.8 147.484-68.604l1.674-.218c-34.66 17.578-58.875 51.36-62.746 91.105l-.037.468c0 50.466 30.39 44.348 39.348 36.91V641.2c1.654 3.91 3.64 7.28 6 10.35l-.08-.11c7.902 10.834 20.553 17.794 34.83 17.794.126 0 .252 0 .38-.002h-.02c27.204-5.185 50.946-17.457 69.972-34.81l-.112.1V398.91c-1.635-26.258-15.49-48.967-35.898-62.678l-.292-.185c3.63-.56 7.817-.88 12.08-.88 17.67 0 34.056 5.505 47.534 14.895l-.273-.18c5.073-6.164 10.132-11.704 15.458-16.976l.018-.018c42.923-43.848 99.465-74.21 162.774-84.24l1.658-.215c-47.46 38.215-79.42 94.018-85.933 157.363l-.083.99c0 67.46 1.72 231.974 1.72 231.974 31.95 30.83 79.416-13.676 122.323-57.624zM512 972.668c-254.42 0-460.67-206.248-460.67-460.67S257.578 51.33 512 51.33c254.42 0 460.668 206.248 460.668 460.67 0 127.21-51.562 242.377-134.927 325.742h.002c-83.364 83.364-198.53 134.926-325.74 134.926zm0-940.53C246.977 32.138 32.136 246.98 32.136 512S246.98 991.862 512 991.862 991.86 777.02 991.86 512c0-132.51-53.71-252.476-140.547-339.314C764.475 85.848 644.51 32.138 512 32.138z"/></svg>